<mxfile host="Electron" modified="2023-09-02T13:17:35.907Z" agent="Mozilla/5.0 (Windows NT 10.0; Win64; x64) AppleWebKit/537.36 (KHTML, like Gecko) draw.io/21.6.8 Chrome/114.0.5735.289 Electron/25.5.0 Safari/537.36" etag="Y-dZD2xpd5uMtrL0ggi1" version="21.6.8" type="device">
  <diagram name="Página-1" id="BhZbfJDsAviER5rSzm83">
    <mxGraphModel dx="875" dy="518" grid="0" gridSize="10" guides="1" tooltips="1" connect="1" arrows="1" fold="1" page="0" pageScale="1" pageWidth="827" pageHeight="1169" background="#ffffff" math="0" shadow="0">
      <root>
        <mxCell id="0" />
        <mxCell id="1" parent="0" />
        <mxCell id="IoCL-cBjBnGf7bKeZ6bx-22" value="Usuário" style="swimlane;fontStyle=0;childLayout=stackLayout;horizontal=1;startSize=30;horizontalStack=0;resizeParent=1;resizeParentMax=0;resizeLast=0;collapsible=1;marginBottom=0;whiteSpace=wrap;html=1;strokeColor=#D0CEE2;fontColor=#1A1A1A;fillColor=#5D7F99;perimeterSpacing=2;" vertex="1" parent="1">
          <mxGeometry x="142" y="202" width="221" height="217" as="geometry">
            <mxRectangle x="142" y="202" width="76" height="30" as="alternateBounds" />
          </mxGeometry>
        </mxCell>
        <mxCell id="IoCL-cBjBnGf7bKeZ6bx-23" value="&lt;span style=&quot;white-space: pre;&quot;&gt;&#x9;&lt;/span&gt;id INT&amp;nbsp;" style="text;strokeColor=#000000;fillColor=none;align=left;verticalAlign=middle;spacingLeft=4;spacingRight=4;overflow=hidden;points=[[0,0.5],[1,0.5]];portConstraint=eastwest;rotatable=0;whiteSpace=wrap;html=1;fontColor=#1A1A1A;" vertex="1" parent="IoCL-cBjBnGf7bKeZ6bx-22">
          <mxGeometry y="30" width="221" height="74" as="geometry" />
        </mxCell>
        <mxCell id="IoCL-cBjBnGf7bKeZ6bx-24" value="&lt;span style=&quot;white-space: pre;&quot;&gt;&#x9;&lt;/span&gt;nome_completo VARCHAR(150)" style="text;strokeColor=#000000;fillColor=none;align=left;verticalAlign=middle;spacingLeft=4;spacingRight=4;overflow=hidden;points=[[0,0.5],[1,0.5]];portConstraint=eastwest;rotatable=0;whiteSpace=wrap;html=1;fontColor=#1A1A1A;" vertex="1" parent="IoCL-cBjBnGf7bKeZ6bx-22">
          <mxGeometry y="104" width="221" height="52" as="geometry" />
        </mxCell>
        <mxCell id="IoCL-cBjBnGf7bKeZ6bx-25" value="&lt;span style=&quot;white-space: pre;&quot;&gt;&#x9;&lt;/span&gt;perfil VARCHAR(20)" style="text;strokeColor=#000000;fillColor=none;align=left;verticalAlign=middle;spacingLeft=4;spacingRight=4;overflow=hidden;points=[[0,0.5],[1,0.5]];portConstraint=eastwest;rotatable=0;whiteSpace=wrap;html=1;fontColor=#1A1A1A;" vertex="1" parent="IoCL-cBjBnGf7bKeZ6bx-22">
          <mxGeometry y="156" width="221" height="61" as="geometry" />
        </mxCell>
        <mxCell id="IoCL-cBjBnGf7bKeZ6bx-32" value="&lt;span style=&quot;white-space: pre;&quot;&gt;&#x9;&lt;/span&gt;email VARCHAR(100)" style="text;strokeColor=#000000;fillColor=none;align=left;verticalAlign=middle;spacingLeft=4;spacingRight=4;overflow=hidden;points=[[0,0.5],[1,0.5]];portConstraint=eastwest;rotatable=0;whiteSpace=wrap;html=1;fontColor=#1A1A1A;" vertex="1" parent="1">
          <mxGeometry x="142" y="419" width="221" height="69" as="geometry" />
        </mxCell>
        <mxCell id="IoCL-cBjBnGf7bKeZ6bx-33" value="&lt;span style=&quot;white-space: pre;&quot;&gt;&#x9;&lt;/span&gt;telefone VARCHAR(11)" style="text;strokeColor=#000000;fillColor=none;align=left;verticalAlign=middle;spacingLeft=4;spacingRight=4;overflow=hidden;points=[[0,0.5],[1,0.5]];portConstraint=eastwest;rotatable=0;whiteSpace=wrap;html=1;fontColor=#1A1A1A;" vertex="1" parent="1">
          <mxGeometry x="142" y="488" width="221" height="57" as="geometry" />
        </mxCell>
        <mxCell id="IoCL-cBjBnGf7bKeZ6bx-34" value="&lt;span style=&quot;white-space: pre;&quot;&gt;&#x9;&lt;/span&gt;status BOOLEAN" style="text;strokeColor=#000000;fillColor=none;align=left;verticalAlign=middle;spacingLeft=4;spacingRight=4;overflow=hidden;points=[[0,0.5],[1,0.5]];portConstraint=eastwest;rotatable=0;whiteSpace=wrap;html=1;fontColor=#1A1A1A;" vertex="1" parent="1">
          <mxGeometry x="142" y="545" width="221" height="58" as="geometry" />
        </mxCell>
        <mxCell id="IoCL-cBjBnGf7bKeZ6bx-54" value="" style="image;sketch=0;aspect=fixed;html=1;points=[];align=center;fontSize=12;image=img/lib/mscae/Key.svg;strokeColor=#D0CEE2;fontColor=#1A1A1A;fillColor=#5D7F99;" vertex="1" parent="1">
          <mxGeometry x="149" y="257" width="10.5" height="16.94" as="geometry" />
        </mxCell>
        <mxCell id="IoCL-cBjBnGf7bKeZ6bx-55" value="&lt;span style=&quot;white-space: pre;&quot;&gt;&#x9;&lt;/span&gt;senha VARCHAR(100)" style="text;strokeColor=#000000;fillColor=none;align=left;verticalAlign=middle;spacingLeft=4;spacingRight=4;overflow=hidden;points=[[0,0.5],[1,0.5]];portConstraint=eastwest;rotatable=0;whiteSpace=wrap;html=1;fontColor=#1A1A1A;" vertex="1" parent="1">
          <mxGeometry x="142" y="603" width="221" height="58" as="geometry" />
        </mxCell>
      </root>
    </mxGraphModel>
  </diagram>
</mxfile>
